<?xml version="1.0" encoding="UTF-8" standalone="no"?>
<!-- Created with Inkscape (http://www.inkscape.org/) -->

<svg
   xmlns:dc="http://purl.org/dc/elements/1.1/"
   xmlns:cc="http://creativecommons.org/ns#"
   xmlns:rdf="http://www.w3.org/1999/02/22-rdf-syntax-ns#"
   xmlns:svg="http://www.w3.org/2000/svg"
   xmlns="http://www.w3.org/2000/svg"
   xmlns:xlink="http://www.w3.org/1999/xlink"
   xmlns:sodipodi="http://sodipodi.sourceforge.net/DTD/sodipodi-0.dtd"
   xmlns:inkscape="http://www.inkscape.org/namespaces/inkscape"
   width="53.366352mm"
   height="14.056225mm"
   viewBox="0 0 53.366351 14.056225"
   version="1.1"
   id="svg838"
   inkscape:version="0.92.5 (2060ec1f9f, 2020-04-08)"
   sodipodi:docname="logo.dark.shapes.svg"
   inkscape:export-filename="/home/henning/Projects/capybara-lockstep/media/capybara-lockstep.dark.png"
   inkscape:export-xdpi="196"
   inkscape:export-ydpi="196">
  <defs
     id="defs832">
    <linearGradient
       inkscape:collect="always"
       id="linearGradient1406">
      <stop
         style="stop-color:#ff0844;stop-opacity:1"
         offset="0"
         id="stop1402" />
      <stop
         style="stop-color:#ffb199;stop-opacity:1"
         offset="1"
         id="stop1404" />
    </linearGradient>
    <linearGradient
       inkscape:collect="always"
       xlink:href="#linearGradient1406"
       id="linearGradient1408"
       x1="22.054907"
       y1="91.071762"
       x2="88.956696"
       y2="91.071762"
       gradientUnits="userSpaceOnUse"
       gradientTransform="matrix(0.79761275,0,0,0.08820435,-17.591275,57.908781)" />
  </defs>
  <sodipodi:namedview
     id="base"
     pagecolor="#ffffff"
     bordercolor="#666666"
     borderopacity="1.0"
     inkscape:pageopacity="0.0"
     inkscape:pageshadow="2"
     inkscape:zoom="11.2"
     inkscape:cx="234.58341"
     inkscape:cy="-11.16366"
     inkscape:document-units="mm"
     inkscape:current-layer="layer1"
     showgrid="false"
     fit-margin-top="0"
     fit-margin-left="0"
     fit-margin-right="0"
     fit-margin-bottom="0"
     inkscape:window-width="2560"
     inkscape:window-height="1391"
     inkscape:window-x="1920"
     inkscape:window-y="0"
     inkscape:window-maximized="1"
     inkscape:pagecheckerboard="true" />
  <metadata
     id="metadata835">
    <rdf:RDF>
      <cc:Work
         rdf:about="">
        <dc:format>image/svg+xml</dc:format>
        <dc:type
           rdf:resource="http://purl.org/dc/dcmitype/StillImage" />
        <dc:title></dc:title>
      </cc:Work>
    </rdf:RDF>
  </metadata>
  <g
     inkscape:label="Layer 1"
     inkscape:groupmode="layer"
     id="layer1"
     transform="translate(0,-52.518951)">
    <g
       aria-label="MINIDUSEN"
       style="font-style:normal;font-variant:normal;font-weight:normal;font-stretch:normal;font-size:10.58333302px;line-height:1.25;font-family:'League Spartan';-inkscape-font-specification:'League Spartan';letter-spacing:0px;word-spacing:0px;fill:#ffffff;fill-opacity:1;stroke:none;stroke-width:0.26458332"
       id="text1385">
      <path
         d="m 7.6041248,52.645951 v 6.985 H 6.0272082 v -4.111625 l 0.068792,-1.169458 -0.269875,1.338791 -1.1747499,3.381375 H 3.1009166 l -1.1694583,-3.381375 -0.2645834,-1.338791 0.068792,1.169458 v 4.111625 H 0.15345833 v -6.985 H 2.3759583 l 1.4075833,4.661958 0.09525,0.555625 0.09525,-0.555625 1.4075833,-4.661958 z"
         style="font-style:normal;font-variant:normal;font-weight:bold;font-stretch:normal;font-family:'League Spartan';-inkscape-font-specification:'League Spartan';fill:#ffffff;fill-opacity:1;stroke-width:0.26458332"
         id="path822" />
      <path
         d="m 8.9217348,52.645951 h 1.5822082 v 6.985 H 8.9217348 Z"
         style="font-style:normal;font-variant:normal;font-weight:bold;font-stretch:normal;font-family:'League Spartan';-inkscape-font-specification:'League Spartan';fill:#ffffff;fill-opacity:1;stroke-width:0.26458332"
         id="path824" />
      <path
         d="m 13.192091,54.095868 0.116417,0.02117 v 5.513917 h -1.582209 v -6.985 h 2.159 l 2.831042,5.503333 -0.116417,0.02117 v -5.5245 h 1.582209 v 6.985 h -2.169584 z"
         style="font-style:normal;font-variant:normal;font-weight:bold;font-stretch:normal;font-family:'League Spartan';-inkscape-font-specification:'League Spartan';fill:#ffffff;fill-opacity:1;stroke-width:0.26458332"
         id="path826" />
      <path
         d="m 19.436255,52.645951 h 1.582208 v 6.985 h -1.582208 z"
         style="font-style:normal;font-variant:normal;font-weight:bold;font-stretch:normal;font-family:'League Spartan';-inkscape-font-specification:'League Spartan';fill:#ffffff;fill-opacity:1;stroke-width:0.26458332"
         id="path828" />
      <path
         d="m 22.256693,52.645951 h 2.100792 q 1.116541,0 1.846791,0.449792 0.735542,0.4445 1.100667,1.232958 0.365125,0.788458 0.365125,1.804458 0,1.021292 -0.365125,1.80975 -0.365125,0.788459 -1.100667,1.23825 -0.73025,0.449792 -1.846791,0.449792 h -2.100792 z m 1.576917,1.402292 v 4.180416 h 0.381 q 0.597958,0 0.989541,-0.269875 0.391584,-0.275166 0.587375,-0.746125 0.201084,-0.47625 0.201084,-1.068916 0,-0.597959 -0.195792,-1.068917 -0.1905,-0.47625 -0.587375,-0.751417 -0.396875,-0.275166 -0.994833,-0.275166 z"
         style="font-style:normal;font-variant:normal;font-weight:bold;font-stretch:normal;font-family:'League Spartan';-inkscape-font-specification:'League Spartan';fill:#ffffff;fill-opacity:1;stroke-width:0.26458332"
         id="path830" />
      <path
         d="m 32.633632,52.645951 h 1.582208 v 4.291542 q 0,0.862541 -0.338666,1.497541 -0.338667,0.629709 -0.968375,0.978959 -0.629709,0.343958 -1.502834,0.343958 -0.878416,0 -1.513416,-0.343958 -0.635,-0.34925 -0.973667,-0.978959 -0.333375,-0.635 -0.333375,-1.497541 v -4.291542 h 1.576917 v 4.206875 q 0,0.47625 0.148166,0.804333 0.153459,0.328084 0.433917,0.497417 0.280458,0.164042 0.661458,0.164042 0.375709,0 0.650875,-0.164042 0.275167,-0.169333 0.423334,-0.497417 0.153458,-0.328083 0.153458,-0.804333 z"
         style="font-style:normal;font-variant:normal;font-weight:bold;font-stretch:normal;font-family:'League Spartan';-inkscape-font-specification:'League Spartan';fill:#ffffff;fill-opacity:1;stroke-width:0.26458332"
         id="path832" />
      <path
         d="m 37.877668,52.518951 q 0.650875,0 1.137709,0.142875 0.486833,0.142875 0.783166,0.301625 0.296333,0.15875 0.359833,0.211667 l -0.762,1.275291 q -0.08467,-0.0635 -0.291041,-0.185208 -0.201083,-0.121708 -0.481542,-0.216958 -0.275166,-0.09525 -0.576791,-0.09525 -0.407459,0 -0.661459,0.148166 -0.248708,0.142875 -0.248708,0.428625 0,0.195792 0.132292,0.354542 0.137583,0.153458 0.41275,0.296333 0.280458,0.137584 0.709083,0.301625 0.391583,0.142875 0.735542,0.338667 0.343958,0.195792 0.603249,0.465667 0.264584,0.264583 0.418042,0.613833 0.153458,0.34925 0.153458,0.79375 0,0.529167 -0.216958,0.92075 -0.216958,0.386292 -0.592667,0.640292 -0.370416,0.254 -0.846666,0.375708 -0.470958,0.127 -0.978958,0.127 -0.719667,0 -1.291167,-0.164042 -0.566208,-0.164041 -0.915458,-0.354541 -0.34925,-0.1905 -0.418042,-0.254 l 0.788458,-1.328209 q 0.0635,0.04762 0.243417,0.153459 0.185208,0.105833 0.449792,0.22225 0.264583,0.111125 0.560916,0.1905 0.301625,0.07937 0.592667,0.07937 0.486833,0 0.73025,-0.185209 0.243417,-0.1905 0.243417,-0.497416 0,-0.227542 -0.153459,-0.407459 -0.153458,-0.179916 -0.460375,-0.338666 -0.306916,-0.164042 -0.767291,-0.343959 -0.460375,-0.185208 -0.862542,-0.449791 -0.396875,-0.264584 -0.645583,-0.661459 -0.248709,-0.396875 -0.248709,-0.98425 0,-0.587375 0.328084,-1.016 0.333375,-0.433916 0.873125,-0.66675 0.545041,-0.232833 1.164166,-0.232833 z"
         style="font-style:normal;font-variant:normal;font-weight:bold;font-stretch:normal;font-family:'League Spartan';-inkscape-font-specification:'League Spartan';fill:#ffffff;fill-opacity:1;stroke-width:0.26458332"
         id="path834" />
      <path
         d="m 41.253748,52.645951 h 4.460875 v 1.386417 h -2.883958 v 1.423458 h 2.8575 v 1.344083 h -2.8575 v 1.444625 h 2.883958 v 1.386417 h -4.460875 z"
         style="font-style:normal;font-variant:normal;font-weight:bold;font-stretch:normal;font-family:'League Spartan';-inkscape-font-specification:'League Spartan';fill:#ffffff;fill-opacity:1;stroke-width:0.26458332"
         id="path836" />
      <path
         d="m 48.376312,54.095868 0.116417,0.02117 v 5.513917 h -1.582208 v -6.985 h 2.159 l 2.831041,5.503333 -0.116416,0.02117 v -5.5245 h 1.582208 v 6.985 h -2.169583 z"
         style="font-style:normal;font-variant:normal;font-weight:bold;font-stretch:normal;font-family:'League Spartan';-inkscape-font-specification:'League Spartan';fill:#ffffff;fill-opacity:1;stroke-width:0.26458332"
         id="path838" />
    </g>
    <rect
       style="fill:url(#linearGradient1408);fill-opacity:1;stroke:none;stroke-width:0.02652412;stroke-miterlimit:4;stroke-dasharray:none;stroke-opacity:1"
       id="rect1387"
       width="53.36171"
       height="1.2668874"
       x="-3.5527137e-15"
       y="65.308289" />
  </g>
</svg>
